<svg width="667" height="603" viewBox="0 0 667 603" fill="none" xmlns="http://www.w3.org/2000/svg">
<g clip-path="url(#clip0_20_18)">
<path d="M251.487 -0.191772C257.36 -0.14314 261.77 0.419942 267.154 2.81057C275.932 6.73752 282.758 14.0465 286.068 23.0764C293.721 43.4998 282.131 62.5217 262.335 69.5629L262.43 122.013C268.146 122.008 273.863 122.102 279.57 122.296C324.389 124.016 364.853 134.091 403.801 156.888C415.625 163.898 427.484 171.843 436.971 181.862C453.986 199.824 453.553 226.01 434.832 242.662C429.74 247.239 423.582 250.473 416.92 252.069C395.258 257.214 384.758 241.743 366.435 232.366C349.918 223.874 331.806 218.935 313.262 217.868C295.935 217.019 277.238 217.91 259.87 217.663C210.995 216.656 168.793 219.621 130.812 254.785C73.8498 307.523 69.0932 398.043 122.695 454.856C152.28 486.215 184.862 498.742 227.011 500.506C226.914 513.654 226.409 527.271 227.203 540.297C227.678 548.066 238.352 551.869 244.345 547.205C250.704 542.26 256.26 536.254 261.986 530.617C272.187 520.539 282.441 510.508 292.748 500.541C324.623 500.236 348.881 494.213 375.119 475.738C387.06 466.99 393.799 456.191 409.689 455.201C419.498 454.592 428.715 457.879 436.062 464.354C445.191 472.428 450.658 483.854 451.221 496.029C451.947 510.766 446.187 525.35 436.068 535.885C393.219 580.51 328.221 600.174 268.043 602.336C197.047 604.891 129.303 584.295 76.8047 535.744C31.5088 493.855 2.71347 432.83 0.461717 371.283C-2.21367 307.864 20.7938 246.047 64.2803 199.812C112.405 148.105 173.251 124.501 242.898 122.021C243.134 104.651 242.963 86.9301 242.965 69.533C238.573 67.8678 235.864 66.8254 232.017 63.9074C224.306 58.0533 219.286 49.3328 218.097 39.724C216.945 30.025 219.766 20.2721 225.918 12.686C232.598 4.57131 241.188 0.790259 251.487 -0.191772Z" fill="url(#paint0_linear_20_18)"/>
<path d="M262.055 236.588C298.461 236.399 333.013 232.827 365.158 252.943C380.72 262.681 398.322 280.096 401.597 298.644C404.638 315.871 402.552 342.479 403.015 360.813C402.072 374.904 404.838 395.072 402.406 408.373C395.24 447.578 349.408 478.053 311.322 480.232C301.338 480.807 292.326 479.893 283.426 483.648C275.65 486.924 251.205 517.234 246.545 518.289L246.336 517.1C244.944 485.465 253.703 481.158 216.584 479.98C186.656 477.748 159.163 464.055 138.325 443.775C76.497 383.617 101.166 270.246 184.641 243.664C211.606 235.077 234.494 236.759 262.055 236.588Z" fill="url(#paint1_linear_20_18)"/>
<path d="M189.949 309.713C209.185 309.32 214.713 321.802 214.4 338.394C214.066 356.16 216.283 370.258 194.412 374.453C172.891 375.555 169.697 358.551 170.246 342.045C170.809 325.103 170.37 314.118 189.949 309.713Z" fill="white"/>
<path d="M325.144 309.749C335.41 309.484 348.535 315.516 349.027 327.197C349.859 346.803 355.068 369.426 329.908 374.506C303.758 374.787 305.182 352.522 305.768 333.777C306.195 320.185 311.832 312.444 325.144 309.749Z" fill="white"/>
<path d="M232.418 381.695C234.098 381.514 243.044 380.992 245.564 381.385C254.458 382.756 286.11 378.133 292.063 384.607C298.854 391.99 288.752 401.975 282.137 406.832C248.686 426.402 210.48 394.205 232.418 381.695Z" fill="white"/>
<path d="M635.89 328.076C645.459 326.699 655.033 330.578 660.951 338.225C666.869 345.871 668.216 356.107 664.484 365.031C660.746 373.949 652.508 380.172 642.91 381.326C628.302 383.078 615.002 372.754 613.08 358.164C611.158 343.58 621.33 330.168 635.89 328.076Z" fill="#639DF9"/>
<path d="M555.189 328.094C569.873 326.641 582.957 337.352 584.439 352.035C585.922 366.713 575.234 379.821 560.557 381.332C545.838 382.85 532.684 372.127 531.195 357.402C529.713 342.678 540.459 329.547 555.189 328.094Z" fill="#7A73F0"/>
<path d="M473.141 328.1C487.848 326.313 501.207 336.813 502.942 351.52C504.676 366.232 494.129 379.551 479.41 381.238C464.768 382.908 451.531 372.426 449.803 357.789C448.074 343.152 458.51 329.875 473.141 328.1Z" fill="#7A73F0"/>
</g>
<defs>
<linearGradient id="paint0_linear_20_18" x1="61.5498" y1="198.769" x2="477.746" y2="471.068" gradientUnits="userSpaceOnUse">
<stop stop-color="#8F4BE7"/>
<stop offset="1" stop-color="#659DF9"/>
</linearGradient>
<linearGradient id="paint1_linear_20_18" x1="140.667" y1="268.228" x2="382.437" y2="444.215" gradientUnits="userSpaceOnUse">
<stop stop-color="#8F53EA"/>
<stop offset="1" stop-color="#6E88F5"/>
</linearGradient>
<clipPath id="clip0_20_18">
<rect width="667" height="603" fill="white"/>
</clipPath>
</defs>
</svg>
