<svg height="236" fill="none" xmlns="http://www.w3.org/2000/svg" width="236">
    <path d="M167.639 224.056C149.776 232.497 130.071 236.295 110.35 235.096C90.6283 233.897 71.5285 227.741 54.8189 217.198C38.1093 206.655 24.3303 192.066 14.7582 174.782C5.18599 157.498 0.130119 138.078 0.0588094 118.321C-0.0124999 98.5634 4.90305 79.1074 14.3502 61.7547C23.7974 44.4021 37.4707 29.714 54.1037 19.0507C70.7368 8.38743 89.7917 2.09386 109.504 0.752847C129.216 -0.588166 148.948 3.06675 166.871 11.3791L164.348 16.8215C162.024 21.8318 156.09 23.9589 150.876 22.1399C137.983 17.6426 124.281 15.7837 110.59 16.7151C93.5636 17.8734 77.1051 23.3094 62.7385 32.5197C48.3719 41.7299 36.5618 54.4166 28.4019 69.4048C20.242 84.3929 15.9963 101.198 16.0579 118.263C16.1195 135.328 20.4864 152.102 28.7543 167.031C37.0221 181.96 48.9235 194.561 63.3562 203.667C77.7889 212.774 94.2862 218.091 111.32 219.126C125.018 219.959 138.706 218.001 151.566 213.411C156.767 211.554 162.716 213.638 165.076 218.632L167.639 224.056Z" fill="url(#paint0_linear_7_9)" />
    <path d="M219.414 78.2297C223.546 76.6217 228.228 78.6618 229.55 82.8942C236.584 105.416 236.669 129.543 229.792 152.113C228.5 156.355 223.833 158.427 219.689 156.849V156.849C215.546 155.27 213.5 150.637 214.746 146.381C220.26 127.553 220.19 107.521 214.544 88.7313C213.268 84.4848 215.281 79.8376 219.414 78.2297V78.2297Z" fill="#113C70" />
    <path d="M201.539 16.4824C211.12 16.4824 218.888 24.249 218.888 33.8301C218.888 43.4113 211.121 51.1787 201.539 51.1787C199.614 51.1787 197.762 50.8642 196.032 50.2852L138.035 108.28C139.417 111.196 140.192 114.456 140.192 117.897C140.192 120.969 139.574 123.895 138.459 126.562L184.097 172.2C186.03 171.457 188.129 171.049 190.324 171.049C199.905 171.049 207.671 178.816 207.671 188.397C207.671 197.978 199.905 205.745 190.324 205.745C180.742 205.745 172.975 197.979 172.975 188.397C172.975 186.955 173.151 185.554 173.483 184.214L127.442 138.173C124.495 139.591 121.192 140.386 117.703 140.386C105.283 140.386 95.2144 130.317 95.2142 117.897C95.2142 108.213 101.336 99.9587 109.92 96.792L109.921 47.7109C109.921 43.2927 113.503 39.7109 117.921 39.7109C122.339 39.7112 125.921 43.2928 125.921 47.7109L125.92 96.957C126.114 97.033 126.306 97.1113 126.496 97.1924L184.909 38.7803C184.443 37.2116 184.192 35.5501 184.192 33.8301C184.192 24.2492 191.959 16.4827 201.539 16.4824Z" fill="url(#paint1_linear_7_9)" />
    <rect x="28.4359" y="123.897" width="12" height="20" rx="6" transform="rotate(-90 28.4359 123.897)" fill="#2795D6" />
    <rect x="122.132" y="205.745" width="12" height="20" rx="6" transform="rotate(-180 122.132 205.745)" fill="#2795D6" />
    <defs>
        <linearGradient id="paint0_linear_7_9" x1="83.8486" y1="0.482056" x2="83.8486" y2="235.312" gradientUnits="userSpaceOnUse">
            <stop stop-color="#0C2F5C" />
            <stop offset="0.494503" stop-color="#2D63A4" />
            <stop offset="1" stop-color="#10437E" />
        </linearGradient>
        <linearGradient id="paint1_linear_7_9" x1="95.2142" y1="79.0512" x2="218.888" y2="39.1483" gradientUnits="userSpaceOnUse">
            <stop stop-color="#0F3563" />
            <stop offset="1" stop-color="#289FD9" />
        </linearGradient>
    </defs>
</svg>