<svg width="40" height="40" viewBox="0 0 128 128" fill="none" xmlns="http://www.w3.org/2000/svg"><path d="M36.5693 106.322H24.4785V36.7926L36.5693 33.7695V106.322Z" fill="#1453FF"></path><path d="M48.6592 21.6772V106.322H60.75V24.7003L48.6592 21.6772Z" fill="#33BFFF"></path><path d="M36.5685 21.6772L36.5684 33.7694L12.3867 39.8155V27.7234L36.5685 21.6772Z" fill="#2963FF"></path><path d="M90.9769 45.8613V57.9536L103.068 60.9766V90.4036V92.047C103.068 92.1975 103.053 92.3439 103.023 92.4857C103.023 92.486 103.023 92.4853 103.023 92.4857C103.023 92.486 103.023 92.4873 103.023 92.4876C103.023 92.4886 103.022 92.4897 103.022 92.4907C102.993 92.632 102.951 92.7681 102.896 92.8979C102.841 93.0285 102.774 93.1525 102.696 93.2686C102.619 93.3836 102.53 93.4914 102.432 93.5893C102.431 93.5902 102.432 93.5913 102.432 93.5923L102.431 93.5933C102.333 93.6916 102.225 93.7798 102.11 93.8579C101.993 93.9362 101.869 94.0044 101.739 94.0595C101.608 94.1145 101.47 94.1574 101.328 94.1864C101.185 94.2153 101.038 94.2306 100.887 94.2306H72.8408V106.322H112.968C114.178 106.322 115.151 105.349 115.151 104.14V103.415L115.163 103.402V94.2306V51.9082L103.068 48.8843L90.9769 45.8613Z" fill="#1453FF"></path><path d="M72.8428 27.7236V88.1845H84.9336V30.7467L72.8428 27.7236Z" fill="#33BFFF"></path></svg>