<svg version="1.1" xmlns="http://www.w3.org/2000/svg" width="108" height="108">
                            <path d="M0 0 C5.60352745 3.54053724 9.11974003 7.5310951 11.23046875 13.86328125 C11.90485363 21.32573692 11.84418766 27.7285561 7.23046875 33.86328125 C4.68921428 36.67612017 2.02985827 39.30849858 -0.76953125 41.86328125 C-0.10953125 42.52328125 0.55046875 43.18328125 1.23046875 43.86328125 C1.71515625 43.3321875 2.19984375 42.80109375 2.69921875 42.25390625 C9.00643594 35.60706967 13.86940709 31.73960534 23.23046875 31.36328125 C28.67563972 31.58273398 32.93012169 32.40576391 37.23046875 35.86328125 C43.06418999 42.20761266 44.60095794 47.21577598 44.5078125 55.78515625 C43.97542003 61.69396286 41.66740726 65.85314474 37.23046875 69.73828125 C30.62673396 74.41592672 25.26351012 74.6154748 17.23046875 73.86328125 C10.37639308 72.06137783 5.87588893 66.95347571 1.23046875 61.86328125 C0.57046875 62.52328125 -0.08953125 63.18328125 -0.76953125 63.86328125 C-0.2384375 64.34796875 0.29265625 64.83265625 0.83984375 65.33203125 C7.72634125 71.86666392 11.35801332 76.69388748 11.79296875 86.36328125 C11.59655006 92.41718573 10.29202198 96.36893956 6.23046875 100.86328125 C1.09364978 105.62423542 -2.63158137 107.15315883 -9.64453125 107.17578125 C-10.83820312 107.19253906 -12.031875 107.20929688 -13.26171875 107.2265625 C-19.12039318 106.61981782 -22.83865421 104.32491348 -26.58203125 99.86328125 C-27.16597656 99.18265625 -27.74992187 98.50203125 -28.3515625 97.80078125 C-32.10049618 92.67827132 -31.26412378 85.8987437 -30.76953125 79.86328125 C-28.98244218 73.01087604 -23.853392 68.50292116 -18.76953125 63.86328125 C-19.42953125 63.20328125 -20.08953125 62.54328125 -20.76953125 61.86328125 C-21.33800781 62.47816406 -21.90648437 63.09304687 -22.4921875 63.7265625 C-29.06417924 70.6057592 -33.6097673 73.94099798 -43.33203125 74.23828125 C-49.88126347 74.06573561 -53.47451163 72.83806557 -58.45703125 68.55078125 C-63.71749636 62.43726774 -64.36146687 57.13851772 -64.1875 49.28515625 C-63.43107832 43.09239554 -60.67700114 39.67537764 -56.26953125 35.48828125 C-50.25739468 31.58039248 -44.79378727 31.10964718 -37.76953125 31.86328125 C-30.38793996 33.73533811 -25.72917163 38.29551058 -20.76953125 43.86328125 C-20.10953125 43.20328125 -19.44953125 42.54328125 -18.76953125 41.86328125 C-19.38441406 41.29480469 -19.99929687 40.72632813 -20.6328125 40.140625 C-27.12701533 33.93643442 -30.96479317 29.04459374 -31.7578125 19.8984375 C-31.79778977 12.95571831 -29.35609085 8.75817548 -24.81640625 3.625 C-17.9727621 -2.26523571 -8.34600028 -3.42550928 0 0 Z M-18.76953125 13.86328125 C-20.49029609 17.73500214 -21.10588712 19.78694247 -19.83203125 23.86328125 C-17.21659329 27.66755465 -14.14781093 30.73490171 -10.76953125 33.86328125 C-5.87147529 31.71767267 -2.64933909 28.32816044 0.23046875 23.86328125 C1.1025114 20.71584254 0.83490095 19.21513252 0.23046875 15.86328125 C-1.56317036 13.05324665 -2.7883406 11.35387657 -5.76953125 9.86328125 C-11.50188141 9.39341648 -14.76620942 9.27123563 -18.76953125 13.86328125 Z M-51.76953125 46.86328125 C-53.59221933 50.96432944 -54.13641957 52.85916585 -52.58203125 57.11328125 C-49.68238531 61.58809982 -49.68238531 61.58809982 -44.95703125 63.73828125 C-40.1370626 63.92729963 -37.37054096 62.32197899 -33.8359375 59.1015625 C-32.10833252 57.38786179 -30.42276035 55.64857302 -28.76953125 53.86328125 C-30.13642679 50.71258703 -31.6261101 48.85436351 -34.26953125 46.67578125 C-34.87796875 46.16660156 -35.48640625 45.65742187 -36.11328125 45.1328125 C-41.48069583 41.01863859 -47.35233398 41.94126143 -51.76953125 46.86328125 Z M11.23046875 49.86328125 C10.01976386 51.99015998 10.01976386 51.99015998 9.23046875 53.86328125 C15.46393059 61.01249469 15.46393059 61.01249469 24.23046875 63.86328125 C28.33458301 62.44262631 31.30183225 60.82770072 33.23046875 56.86328125 C33.76244886 52.07546025 33.95555889 49.9992558 31.35546875 45.92578125 C28.23294448 42.89509593 25.85133919 42.34688804 21.46484375 42.37890625 C17.10714707 43.32358175 14.07711233 46.57560839 11.23046875 49.86328125 Z M-10.76953125 50.86328125 C-10.76953125 52.18328125 -10.76953125 53.50328125 -10.76953125 54.86328125 C-9.77953125 54.53328125 -8.78953125 54.20328125 -7.76953125 53.86328125 C-8.09953125 52.87328125 -8.42953125 51.88328125 -8.76953125 50.86328125 C-9.42953125 50.86328125 -10.08953125 50.86328125 -10.76953125 50.86328125 Z M-14.76953125 75.42578125 C-18.42107947 79.18355633 -20.17867654 81.64406466 -20.76953125 86.86328125 C-20.04573905 90.32139955 -18.99334176 91.64551967 -16.45703125 94.11328125 C-13.642901 95.94573816 -12.11624807 96.78165401 -8.76953125 96.86328125 C-4.7147887 95.32247908 -1.74350617 93.81123108 0.23046875 89.86328125 C0.77458205 85.66583579 0.56421907 83.4813374 -1.45703125 79.73828125 C-3.74890442 76.88892542 -6.0436249 74.30225009 -8.76953125 71.86328125 C-11.73680782 71.86328125 -12.67143498 73.39325049 -14.76953125 75.42578125 Z " fill="#FEBF00" transform="translate(63.76953125,1.13671875)"></path>
                        </svg>